<svg id="visual" viewBox="0 0 960 540" width="960" height="540" xmlns="http://www.w3.org/2000/svg" xmlns:xlink="http://www.w3.org/1999/xlink" version="1.1">
<rect x="0" y="0" width="960" height="540" fill="#001220"></rect>
<defs>
<linearGradient id="grad1_0" x1="43.8%" y1="0%" x2="100%" y2="100%">
<stop offset="14.444444444444446%" stop-color="#001220" stop-opacity="1"></stop>
<stop offset="85.55555555555554%" stop-color="#001220" stop-opacity="1"></stop></linearGradient></defs>

<defs>
<linearGradient id="grad2_0" x1="0%" y1="0%" x2="56.3%" y2="100%">
<stop offset="14.444444444444446%" stop-color="#001220" stop-opacity="1"></stop>
<stop offset="85.55555555555554%" stop-color="#001220" stop-opacity="1"></stop></linearGradient></defs>
<g transform="translate(960, 0)">
<path d="M0 270C-21.9 262.3 -43.9 254.5 -67 250.2C-90.2 245.8 -114.5 244.8 -135 233.8C-155.5 222.8 -172 201.8 -178.2 178.2C-184.3 154.6 -180.1 128.5 -191.4 110.5C-202.7 92.5 -229.6 82.8 -245.3 65.7C-261 48.7 -265.5 24.3 -270 0L0 0Z" fill="#a12d0a"></path></g>
<g transform="translate(0, 540)"><path d="M0 -270C21.1 -262.3 42.2 -254.7 67.6 -252.1C92.9 -249.5 122.4 -252.1 135 -233.8C147.6 -215.6 143.3 -176.5 158.4 -158.4C173.5 -140.2 207.9 -143 226.9 -131C245.9 -119 249.4 -92.4 254 -68.1C258.6 -43.8 264.3 -21.9 270 0L0 0Z" fill="#a12d0a"></path></g>
</svg>